<svg width="15" height="14" viewBox="0 0 15 14" fill="none" xmlns="http://www.w3.org/2000/svg">
<path fill-rule="evenodd" clip-rule="evenodd" d="M2.28339 0.219829C1.98935 -0.0742529 1.51262 -0.0742529 1.21858 0.219829C0.924537 0.513911 0.924537 0.990712 1.21858 1.28479L6.93317 7.0002L1.22045 12.7137C0.926411 13.0078 0.92641 13.4846 1.22045 13.7787C1.51449 14.0728 1.99122 14.0728 2.28526 13.7787L7.99798 8.06517L13.7107 13.7787C14.0047 14.0728 14.4815 14.0728 14.7755 13.7787C15.0695 13.4846 15.0695 13.0078 14.7755 12.7137L9.06279 7.0002L14.7774 1.28479C15.0714 0.990712 15.0714 0.513911 14.7774 0.219829C14.4833 -0.0742529 14.0066 -0.0742529 13.7126 0.219829L7.99798 5.93524L2.28339 0.219829Z" fill="#3A3A3C"/>
</svg>
